HIERARCHY
ROOT Hips
{
	OFFSET -19.878815 -49.619598 87.647690
	CHANNELS 6 Xposition Yposition Zposition Zrotation Yrotation Xrotation
	JOINT Spine
	{
		OFFSET 0.000000 2.080109 8.814247
		CHANNELS 6 Xposition Yposition Zposition Zrotation Yrotation Xrotation
		JOINT Spine1
		{
			OFFSET 0.000000 0.000000 8.844139
			CHANNELS 6 Xposition Yposition Zposition Zrotation Yrotation Xrotation
			JOINT Spine2
			{
				OFFSET 0.000000 0.000000 11.682266
				CHANNELS 6 Xposition Yposition Zposition Zrotation Yrotation Xrotation
				JOINT Spine3
				{
					OFFSET 0.000000 0.000004 11.746704
					CHANNELS 6 Xposition Yposition Zposition Zrotation Yrotation Xrotation
					JOINT Neck
					{
						OFFSET 0.000000 0.000000 17.658264
						CHANNELS 6 Xposition Yposition Zposition Zrotation Yrotation Xrotation
						JOINT Neck1
						{
							OFFSET 0.000000 0.000000 5.101517
							CHANNELS 6 Xposition Yposition Zposition Zrotation Yrotation Xrotation
							JOINT Head
							{
								OFFSET 0.000000 0.000000 5.101517
								CHANNELS 6 Xposition Yposition Zposition Zrotation Yrotation Xrotation
								JOINT HeadEnd
								{
									OFFSET 0.000000 0.000000 11.655090
									CHANNELS 6 Xposition Yposition Zposition Zrotation Yrotation Xrotation
									End Site
									{
										OFFSET 0.000000 0.000000 0.100006
									}
								}
							}
						}
					}
					JOINT RightShoulder
					{
						OFFSET -2.625389 0.000000 11.175217
						CHANNELS 6 Xposition Yposition Zposition Zrotation Yrotation Xrotation
						JOINT RightArm
						{
							OFFSET 0.000000 0.000000 10.434708
							CHANNELS 6 Xposition Yposition Zposition Zrotation Yrotation Xrotation
							JOINT RightForeArm
							{
								OFFSET 0.000000 0.000004 29.628418
								CHANNELS 6 Xposition Yposition Zposition Zrotation Yrotation Xrotation
								JOINT RightHand
								{
									OFFSET 0.000000 0.000000 22.857605
									CHANNELS 6 Xposition Yposition Zposition Zrotation Yrotation Xrotation
									JOINT RightHandThumb1
									{
										OFFSET -2.867323 -2.944290 3.959564
										CHANNELS 6 Xposition Yposition Zposition Zrotation Yrotation Xrotation
										JOINT RightHandThumb2
										{
											OFFSET 0.000000 0.000000 3.350403
											CHANNELS 6 Xposition Yposition Zposition Zrotation Yrotation Xrotation
											JOINT RightHandThumb3
											{
												OFFSET 0.000000 0.000000 3.756516
												CHANNELS 6 Xposition Yposition Zposition Zrotation Yrotation Xrotation
												JOINT RightHandThumb4
												{
													OFFSET 0.000000 0.000000 3.147339
													CHANNELS 6 Xposition Yposition Zposition Zrotation Yrotation Xrotation
													End Site
													{
														OFFSET 0.000000 0.000000 0.100006
													}
												}
											}
										}
									}
									JOINT RightHandIndex1
									{
										OFFSET -0.086752 -2.345280 10.030899
										CHANNELS 6 Xposition Yposition Zposition Zrotation Yrotation Xrotation
										JOINT RightHandIndex2
										{
											OFFSET 0.000000 0.000000 4.061096
											CHANNELS 6 Xposition Yposition Zposition Zrotation Yrotation Xrotation
											JOINT RightHandIndex3
											{
												OFFSET 0.000000 0.000000 3.248871
												CHANNELS 6 Xposition Yposition Zposition Zrotation Yrotation Xrotation
												JOINT RightHandIndex4
												{
													OFFSET 0.000000 0.000000 2.639709
													CHANNELS 6 Xposition Yposition Zposition Zrotation Yrotation Xrotation
													End Site
													{
														OFFSET 0.000000 0.000000 0.100006
													}
												}
											}
										}
									}
									JOINT RightHandMiddle1
									{
										OFFSET 0.104101 -0.006767 9.502945
										CHANNELS 6 Xposition Yposition Zposition Zrotation Yrotation Xrotation
										JOINT RightHandMiddle2
										{
											OFFSET 0.000000 0.000000 4.568726
											CHANNELS 6 Xposition Yposition Zposition Zrotation Yrotation Xrotation
											JOINT RightHandMiddle3
											{
												OFFSET 0.000000 0.000000 3.654984
												CHANNELS 6 Xposition Yposition Zposition Zrotation Yrotation Xrotation
												JOINT RightHandMiddle4
												{
													OFFSET 0.000000 0.000000 2.741241
													CHANNELS 6 Xposition Yposition Zposition Zrotation Yrotation Xrotation
													End Site
													{
														OFFSET 0.000000 0.000000 0.100006
													}
												}
											}
										}
									}
									JOINT RightHandRing1
									{
										OFFSET 0.086752 2.267441 8.921707
										CHANNELS 6 Xposition Yposition Zposition Zrotation Yrotation Xrotation
										JOINT RightHandRing2
										{
											OFFSET 0.000000 0.000000 4.061096
											CHANNELS 6 Xposition Yposition Zposition Zrotation Yrotation Xrotation
											JOINT RightHandRing3
											{
												OFFSET 0.000000 0.000000 3.654984
												CHANNELS 6 Xposition Yposition Zposition Zrotation Yrotation Xrotation
												JOINT RightHandRing4
												{
													OFFSET 0.000000 0.000000 2.741241
													CHANNELS 6 Xposition Yposition Zposition Zrotation Yrotation Xrotation
													End Site
													{
														OFFSET 0.000000 0.000000 0.100006
													}
												}
											}
										}
									}
									JOINT RightHandPinky1
									{
										OFFSET -0.173504 4.467197 7.976990
										CHANNELS 6 Xposition Yposition Zposition Zrotation Yrotation Xrotation
										JOINT RightHandPinky2
										{
											OFFSET 0.000000 0.000000 3.350403
											CHANNELS 6 Xposition Yposition Zposition Zrotation Yrotation Xrotation
											JOINT RightHandPinky3
											{
												OFFSET 0.000000 0.000000 2.842758
												CHANNELS 6 Xposition Yposition Zposition Zrotation Yrotation Xrotation
												JOINT RightHandPinky4
												{
													OFFSET 0.000000 0.000000 2.639709
													CHANNELS 6 Xposition Yposition Zposition Zrotation Yrotation Xrotation
													End Site
													{
														OFFSET 0.000000 0.000000 0.100006
													}
												}
											}
										}
									}
									JOINT RightForeArmEnd
									{
										OFFSET 0.000000 0.000000 0.000000
										CHANNELS 6 Xposition Yposition Zposition Zrotation Yrotation Xrotation
										End Site
										{
											OFFSET 0.000000 0.000000 0.100006
										}
									}
								}
								JOINT RightArmEnd
								{
									OFFSET 0.000000 0.000000 0.000000
									CHANNELS 6 Xposition Yposition Zposition Zrotation Yrotation Xrotation
									End Site
									{
										OFFSET 0.000000 0.000000 0.100006
									}
								}
							}
						}
					}
					JOINT LeftShoulder
					{
						OFFSET 2.625389 0.000000 11.175217
						CHANNELS 6 Xposition Yposition Zposition Zrotation Yrotation Xrotation
						JOINT LeftArm
						{
							OFFSET 0.000000 0.000000 10.813629
							CHANNELS 6 Xposition Yposition Zposition Zrotation Yrotation Xrotation
							JOINT LeftForeArm
							{
								OFFSET 0.000000 0.000004 28.724777
								CHANNELS 6 Xposition Yposition Zposition Zrotation Yrotation Xrotation
								JOINT LeftHand
								{
									OFFSET 0.644384 0.328873 25.716171
									CHANNELS 6 Xposition Yposition Zposition Zrotation Yrotation Xrotation
									JOINT LeftHandThumb1
									{
										OFFSET 2.867323 -2.944290 3.959564
										CHANNELS 6 Xposition Yposition Zposition Zrotation Yrotation Xrotation
										JOINT LeftHandThumb2
										{
											OFFSET 0.000000 0.000000 3.350403
											CHANNELS 6 Xposition Yposition Zposition Zrotation Yrotation Xrotation
											JOINT LeftHandThumb3
											{
												OFFSET 0.000000 0.000000 3.756516
												CHANNELS 6 Xposition Yposition Zposition Zrotation Yrotation Xrotation
												JOINT LeftHandThumb4
												{
													OFFSET 0.000000 0.000000 3.100006
													CHANNELS 6 Xposition Yposition Zposition Zrotation Yrotation Xrotation
													End Site
													{
														OFFSET 0.000000 0.000000 0.100006
													}
												}
											}
										}
									}
									JOINT LeftHandIndex1
									{
										OFFSET 0.086752 -2.345280 10.030899
										CHANNELS 6 Xposition Yposition Zposition Zrotation Yrotation Xrotation
										JOINT LeftHandIndex2
										{
											OFFSET 0.000000 0.000000 4.061096
											CHANNELS 6 Xposition Yposition Zposition Zrotation Yrotation Xrotation
											JOINT LeftHandIndex3
											{
												OFFSET 0.000000 0.000000 3.248871
												CHANNELS 6 Xposition Yposition Zposition Zrotation Yrotation Xrotation
												JOINT LeftHandIndex4
												{
													OFFSET 0.000000 0.000000 2.639709
													CHANNELS 6 Xposition Yposition Zposition Zrotation Yrotation Xrotation
													End Site
													{
														OFFSET 0.000000 0.000000 0.100006
													}
												}
											}
										}
									}
									JOINT LeftHandMiddle1
									{
										OFFSET -0.104101 -0.006767 9.502945
										CHANNELS 6 Xposition Yposition Zposition Zrotation Yrotation Xrotation
										JOINT LeftHandMiddle2
										{
											OFFSET 0.000000 0.000000 4.568726
											CHANNELS 6 Xposition Yposition Zposition Zrotation Yrotation Xrotation
											JOINT LeftHandMiddle3
											{
												OFFSET 0.000000 0.000000 3.654984
												CHANNELS 6 Xposition Yposition Zposition Zrotation Yrotation Xrotation
												JOINT LeftHandMiddle4
												{
													OFFSET 0.000000 0.000000 2.741241
													CHANNELS 6 Xposition Yposition Zposition Zrotation Yrotation Xrotation
													End Site
													{
														OFFSET 0.000000 0.000000 0.100006
													}
												}
											}
										}
									}
									JOINT LeftHandRing1
									{
										OFFSET -0.086752 2.267441 8.921707
										CHANNELS 6 Xposition Yposition Zposition Zrotation Yrotation Xrotation
										JOINT LeftHandRing2
										{
											OFFSET 0.000000 0.000000 4.061096
											CHANNELS 6 Xposition Yposition Zposition Zrotation Yrotation Xrotation
											JOINT LeftHandRing3
											{
												OFFSET 0.000000 0.000000 3.654984
												CHANNELS 6 Xposition Yposition Zposition Zrotation Yrotation Xrotation
												JOINT LeftHandRing4
												{
													OFFSET 0.000000 0.000000 2.741241
													CHANNELS 6 Xposition Yposition Zposition Zrotation Yrotation Xrotation
													End Site
													{
														OFFSET 0.000000 0.000000 0.100006
													}
												}
											}
										}
									}
									JOINT LeftHandPinky1
									{
										OFFSET 0.173504 4.467197 7.976990
										CHANNELS 6 Xposition Yposition Zposition Zrotation Yrotation Xrotation
										JOINT LeftHandPinky2
										{
											OFFSET 0.000000 0.000000 3.350403
											CHANNELS 6 Xposition Yposition Zposition Zrotation Yrotation Xrotation
											JOINT LeftHandPinky3
											{
												OFFSET 0.000000 0.000000 2.842758
												CHANNELS 6 Xposition Yposition Zposition Zrotation Yrotation Xrotation
												JOINT LeftHandPinky4
												{
													OFFSET 0.000000 0.000000 2.639709
													CHANNELS 6 Xposition Yposition Zposition Zrotation Yrotation Xrotation
													End Site
													{
														OFFSET 0.000000 0.000000 0.100006
													}
												}
											}
										}
									}
									JOINT LeftForeArmEnd
									{
										OFFSET 0.000000 0.000000 0.000000
										CHANNELS 6 Xposition Yposition Zposition Zrotation Yrotation Xrotation
										End Site
										{
											OFFSET 0.000000 0.000000 0.100006
										}
									}
								}
								JOINT LeftArmEnd
								{
									OFFSET 0.000000 0.000000 0.000000
									CHANNELS 6 Xposition Yposition Zposition Zrotation Yrotation Xrotation
									End Site
									{
										OFFSET 0.000000 0.000000 0.100006
									}
								}
							}
						}
					}
				}
			}
		}
	}
	JOINT RightUpLeg
	{
		OFFSET -11.289944 0.000000 0.000000
		CHANNELS 6 Xposition Yposition Zposition Zrotation Yrotation Xrotation
		JOINT RightLeg
		{
			OFFSET 0.000000 -0.000004 -38.200321
			CHANNELS 6 Xposition Yposition Zposition Zrotation Yrotation Xrotation
			JOINT RightFoot
			{
				OFFSET 0.000000 -0.000004 -39.900856
				CHANNELS 6 Xposition Yposition Zposition Zrotation Yrotation Xrotation
				JOINT RightToeBase
				{
					OFFSET 0.000000 -15.261642 0.000001
					CHANNELS 6 Xposition Yposition Zposition Zrotation Yrotation Xrotation
					JOINT RightToeBaseEnd
					{
						OFFSET 0.000000 -7.370712 0.000001
						CHANNELS 6 Xposition Yposition Zposition Zrotation Yrotation Xrotation
						End Site
						{
							OFFSET 0.000000 0.000000 0.100000
						}
					}
				}
				JOINT RightLegEnd
				{
					OFFSET 0.000000 0.000000 0.000000
					CHANNELS 6 Xposition Yposition Zposition Zrotation Yrotation Xrotation
					End Site
					{
						OFFSET 0.000000 0.000000 0.100000
					}
				}
			}
			JOINT RightUpLegEnd
			{
				OFFSET 0.000000 0.000000 0.000000
				CHANNELS 6 Xposition Yposition Zposition Zrotation Yrotation Xrotation
				End Site
				{
					OFFSET 0.000000 0.000000 0.099998
				}
			}
		}
	}
	JOINT LeftUpLeg
	{
		OFFSET 11.315661 0.000000 0.000000
		CHANNELS 6 Xposition Yposition Zposition Zrotation Yrotation Xrotation
		JOINT LeftLeg
		{
			OFFSET 0.000000 -0.000004 -38.200321
			CHANNELS 6 Xposition Yposition Zposition Zrotation Yrotation Xrotation
			JOINT LeftFoot
			{
				OFFSET 0.000000 -0.000004 -39.900856
				CHANNELS 6 Xposition Yposition Zposition Zrotation Yrotation Xrotation
				JOINT LeftToeBase
				{
					OFFSET 0.000000 -15.261642 0.000001
					CHANNELS 6 Xposition Yposition Zposition Zrotation Yrotation Xrotation
					JOINT LeftToeBaseEnd
					{
						OFFSET 0.000000 -7.539993 0.000001
						CHANNELS 6 Xposition Yposition Zposition Zrotation Yrotation Xrotation
						End Site
						{
							OFFSET 0.000000 0.000000 0.100000
						}
					}
				}
				JOINT LeftLegEnd
				{
					OFFSET 0.000000 0.000000 0.000000
					CHANNELS 6 Xposition Yposition Zposition Zrotation Yrotation Xrotation
					End Site
					{
						OFFSET 0.000000 0.000000 0.100000
					}
				}
			}
			JOINT LeftUpLegEnd
			{
				OFFSET 0.000000 0.000000 0.000000
				CHANNELS 6 Xposition Yposition Zposition Zrotation Yrotation Xrotation
				End Site
				{
					OFFSET 0.000000 0.000000 0.099998
				}
			}
		}
	}
}
MOTION
Frames: 2
Frame Time: 0.016667
2.531103 -22.380783 86.992065 0.234992 2.644566 -15.812416 0.000001 2.080104 8.814247 0.631443 0.669495 7.723033 -0.000000 0.000001 8.844139 -0.026617 -0.355527 3.026015 -0.000000 -0.000009 11.682263 -1.223601 -0.534196 10.447427 -0.000001 0.000002 11.746710 -0.239526 0.922189 2.220159 0.000003 -0.000004 17.658257 -2.848240 -10.747095 13.765468 -0.000002 0.000004 5.101523 -0.701421 3.536497 -7.359325 0.000001 0.000008 5.101533 3.464514 -0.174180 -25.182948 0.000002 -0.000001 11.655074 -0.000000 0.000000 0.000001 -2.625393 -0.000002 11.175221 7.308538 -90.748864 -0.620009 0.000008 0.000003 10.434715 -26.753998 -62.873824 36.771584 -0.000002 0.000002 29.628433 32.106957 -9.326484 24.271040 0.000002 0.000011 22.857616 21.697776 2.311551 -11.359111 -2.867323 -2.944254 3.959566 31.933129 -15.385279 54.454913 -0.000007 0.000003 3.350404 -8.550981 6.464772 -15.863210 0.000003 0.000004 3.756531 -5.744565 4.744960 -10.902224 -0.000001 -0.000008 3.147355 0.000001 -0.000004 -0.000003 -0.086752 -2.345267 10.030934 -8.805914 -0.983528 8.754076 0.000001 -0.000005 4.061099 0.498870 -1.592165 0.223778 -0.000002 -0.000005 3.248866 -0.002829 -1.592177 0.223817 0.000000 -0.000002 2.639710 0.000001 -0.000000 -0.000001 0.104102 -0.006749 9.502950 -4.010459 -2.617810 5.840584 -0.000002 0.000001 4.568747 0.510501 -2.107443 0.110025 0.000005 -0.000008 3.655019 0.005372 -2.107441 0.110230 -0.000002 0.000002 2.741243 -0.000000 -0.000000 -0.000002 0.086751 2.267462 8.921740 3.758500 -4.477545 2.932471 -0.000007 0.000003 4.061133 -0.994233 -3.004231 -0.183945 -0.000002 0.000007 3.654993 -0.002760 -3.003709 -0.183516 -0.000006 -0.000007 2.741242 -0.000000 -0.000000 -0.000001 -0.173502 4.467211 7.977017 12.145901 -4.737903 -2.051255 0.000003 0.000005 3.350420 -1.979632 -3.542903 -0.689497 0.000003 0.000013 2.842745 0.020715 -3.542900 -0.689536 0.000002 0.000005 2.639725 -0.000000 -0.000000 -0.000000 0.000002 0.000017 0.000017 -0.000002 -0.000001 -0.000002 0.000004 0.000009 -0.000013 0.000001 -0.000000 -0.000003 2.625395 0.000003 11.175200 -7.872101 88.249732 -0.470604 -0.000024 -0.000006 10.813621 39.622542 49.580832 43.678076 -0.000001 0.000003 28.724775 -1.833017 0.835655 43.335238 0.644383 0.328884 25.716160 -5.183500 -1.246559 -30.095395 2.867323 -2.944267 3.959548 -32.521946 13.276049 57.994467 0.000001 -0.000005 3.350394 4.043828 -3.528150 -7.797600 0.000001 -0.000006 3.756502 2.756681 -2.509068 -5.386703 0.000001 0.000002 3.100023 -0.000000 -0.000000 -0.000002 0.086750 -2.345276 10.030883 -10.620194 -11.330276 -1.431580 0.000001 -0.000001 4.061102 0.526243 0.000031 0.000021 -0.000002 0.000001 3.248889 0.024682 0.000002 0.001655 -0.000006 0.000004 2.639723 0.000000 -0.000001 0.000001 -0.104102 -0.006764 9.502931 -5.240998 -9.881573 -4.778210 -0.000006 -0.000001 4.568726 0.522591 0.000071 0.002876 -0.000006 0.000004 3.654979 0.023700 0.000007 0.002008 -0.000001 -0.000003 2.741241 0.000001 -0.000000 0.000000 -0.086755 2.267445 8.921665 3.304630 -6.268363 -6.520475 0.000006 0.000001 4.061108 -1.020043 0.000013 0.000048 0.000000 -0.000004 3.654996 -0.018100 -0.000018 0.006163 -0.000006 0.000001 2.741242 -0.000000 0.000001 0.000000 0.173502 4.467200 7.976986 12.234914 -2.430473 -7.027453 -0.000005 0.000005 3.350404 -2.013899 -0.000019 0.000012 0.000004 -0.000001 2.842759 -0.011819 0.000004 0.000000 0.000003 0.000004 2.639724 -0.000002 -0.000000 0.000000 -0.000005 0.000005 -0.000015 -0.000000 0.000001 0.000000 -0.000007 0.000012 -0.000001 0.000002 -0.000003 0.000000 -11.289945 -0.000010 -0.000004 4.515513 -3.642210 16.211621 -0.000001 -0.000009 -38.200317 -0.525279 0.116271 13.144907 -0.000003 -0.000009 -39.900848 -5.482039 5.467677 14.520285 0.000001 -15.261654 0.000009 -0.829499 0.154452 -28.230504 0.000002 -7.370712 0.000002 0.000000 -0.000000 -0.000000 -0.000002 -0.000008 -0.000000 -0.000000 -0.000001 -0.000000 -0.000004 -0.000003 0.000010 0.000000 -0.000000 0.000001 11.315661 -0.000011 0.000000 3.437402 -1.214228 19.276355 -0.000001 -0.000011 -38.200317 0.351267 -0.077500 12.084873 -0.000000 -0.000006 -39.900860 2.169293 -8.167467 9.924023 -0.000001 -15.261656 0.000008 0.969412 -0.333708 -27.001970 0.000000 -7.540001 0.000002 0.000000 0.000000 0.000000 -0.000002 -0.000004 -0.000000 0.000000 -0.000000 0.000001 -0.000001 -0.000004 0.000006 0.000000 -0.000000 0.000002 
2.552452 -22.329636 86.994217 0.424096 2.597233 -15.720657 -0.000000 2.080107 8.814260 0.620820 0.670474 7.685321 0.000001 0.000003 8.844142 -0.013659 -0.332915 2.913811 0.000001 -0.000000 11.682270 -1.238215 -0.556558 10.495442 -0.000002 0.000005 11.746710 -0.227405 0.938628 2.172482 -0.000001 -0.000000 17.658260 -2.794553 -10.545128 13.502853 -0.000003 -0.000001 5.101518 -0.744182 3.591795 -7.541269 -0.000002 0.000004 5.101506 3.448793 -0.158346 -25.037368 0.000001 0.000005 11.655089 0.000000 0.000000 0.000001 -2.625405 -0.000000 11.175217 7.490383 -90.477528 -0.678045 0.000010 0.000002 10.434708 -25.017170 -63.616218 36.339417 0.000000 0.000002 29.628443 30.982032 -8.958330 24.619053 -0.000007 -0.000004 22.857651 22.173106 2.111601 -11.158258 -2.867323 -2.944261 3.959547 31.933033 -15.385368 54.455264 0.000001 -0.000000 3.350417 -8.551060 6.464698 -15.863895 0.000002 0.000005 3.756510 -5.744466 4.745029 -10.901883 0.000001 -0.000012 3.147368 0.000000 -0.000003 0.000000 -0.086749 -2.345276 10.030902 -8.721756 -0.505547 9.363575 0.000002 0.000004 4.061106 0.500794 -1.322918 0.185792 -0.000002 0.000012 3.248861 -0.001545 -1.321732 0.185877 -0.000000 -0.000005 2.639710 -0.000001 -0.000001 -0.000000 0.104107 -0.006762 9.502934 -3.944097 -2.236901 6.287848 0.000000 -0.000008 4.568753 0.512418 -1.855721 0.096878 -0.000002 -0.000008 3.654968 0.006882 -1.857069 0.097048 -0.000003 0.000001 2.741254 -0.000000 -0.000002 0.000003 0.086751 2.267450 8.921734 3.812432 -4.172020 3.109424 0.000002 0.000007 4.061124 -0.994936 -2.777886 -0.170084 0.000002 -0.000004 3.654990 -0.004481 -2.777881 -0.169610 -0.000003 -0.000005 2.741256 -0.000001 -0.000000 0.000001 -0.173497 4.467199 7.976965 12.188094 -4.446207 -2.110200 -0.000004 -0.000001 3.350408 -1.981665 -3.353866 -0.652650 -0.000003 0.000003 2.842769 0.018454 -3.353881 -0.652644 0.000003 -0.000001 2.639724 0.000002 -0.000001 0.000001 0.000004 0.000008 -0.000018 -0.000002 -0.000001 0.000003 -0.000003 -0.000003 0.000003 -0.000001 -0.000000 -0.000004 2.625377 -0.000002 11.175216 -8.084670 87.858042 -0.633976 0.000005 -0.000001 10.813622 39.513382 50.041388 44.888338 0.000004 0.000009 28.724770 -2.478822 1.097480 43.342598 0.644388 0.328870 25.716171 -6.117114 -1.934630 -29.604096 2.867333 -2.944287 3.959556 -32.577035 13.119577 58.269443 0.000000 -0.000004 3.350405 3.715634 -3.276707 -7.188204 0.000001 0.000003 3.756523 2.536228 -2.325402 -4.967873 -0.000002 -0.000001 3.100023 -0.000000 -0.000000 -0.000002 0.086755 -2.345285 10.030876 -10.838544 -12.202039 -0.533607 0.000001 0.000005 4.061108 0.528538 -0.024372 -0.000201 0.000000 0.000004 3.248865 0.026851 0.013521 0.001886 -0.000000 -0.000004 2.639707 0.000001 -0.000002 0.000002 -0.104093 -0.006773 9.502954 -5.444078 -10.865659 -3.958580 0.000004 0.000002 4.568727 0.524893 0.000093 0.003457 0.000005 0.000004 3.654968 0.026144 0.000006 0.002428 0.000004 -0.000001 2.741242 -0.000001 0.000001 0.000000 -0.086743 2.267439 8.921663 3.109837 -7.502568 -5.910585 -0.000001 0.000003 4.061117 -1.022656 0.000004 0.000054 0.000004 0.000001 3.654973 -0.020323 0.000003 0.006745 0.000012 0.000001 2.741286 -0.000000 0.000000 0.000001 0.173507 4.467192 7.976998 12.032447 -3.879732 -6.679259 -0.000005 0.000001 3.350411 -2.017064 -0.000029 0.000018 -0.000004 -0.000002 2.842746 -0.014505 0.000006 -0.000001 0.000013 0.000005 2.639709 -0.000000 -0.000000 0.000001 0.000008 -0.000004 -0.000015 0.000002 0.000001 -0.000001 0.000002 0.000005 -0.000001 -0.000004 -0.000001 0.000000 -11.289946 -0.000007 0.000002 4.408406 -3.544910 16.175826 -0.000001 -0.000008 -38.200317 -0.528476 0.116428 13.053292 -0.000005 -0.000008 -39.900856 -5.525174 5.450868 14.519174 -0.000000 -15.261652 0.000006 -0.833159 0.164984 -28.194905 0.000002 -7.370720 0.000002 0.000000 0.000001 -0.000000 -0.000000 -0.000008 0.000001 -0.000000 -0.000000 0.000001 -0.000002 -0.000003 0.000003 -0.000000 -0.000000 0.000000 11.315660 -0.000012 0.000004 3.335772 -1.122222 19.116410 -0.000002 -0.000011 -38.200317 0.346056 -0.076949 12.116405 0.000000 -0.000007 -39.900860 2.104932 -8.195710 9.972849 -0.000001 -15.261653 0.000010 0.967040 -0.325043 -27.011265 -0.000001 -7.539993 0.000002 0.000000 0.000000 -0.000000 -0.000002 -0.000000 0.000001 0.000000 0.000000 -0.000001 -0.000001 -0.000009 0.000002 0.000000 0.000000 0.000002 
